<svg width="97" height="101" viewBox="0 0 97 101" fill="none" xmlns="http://www.w3.org/2000/svg">
<path d="M80.1622 96.5623C79.2677 96.5623 78.471 96.3526 77.7722 95.9333C77.0873 95.5 76.5492 94.906 76.1579 94.1513C75.7805 93.3965 75.5918 92.523 75.5918 91.5306C75.5918 90.5243 75.7875 89.6438 76.1788 88.889C76.5842 88.1343 77.1432 87.5473 77.856 87.128C78.5828 86.7087 79.4214 86.499 80.3719 86.499C81.3223 86.499 82.1329 86.7017 82.8038 87.107C83.4887 87.4984 84.0128 88.0644 84.3762 88.8052C84.7396 89.546 84.9213 90.4265 84.9213 91.4468C84.9213 91.5446 84.9143 91.6494 84.9003 91.7613C84.9003 91.8591 84.9003 91.922 84.9003 91.9499H72.9644V90.5243H83.5795L82.9086 91.4887C82.9506 91.4188 82.9925 91.314 83.0344 91.1742C83.0764 91.0205 83.0973 90.8947 83.0973 90.7969C83.0973 90.2238 82.9785 89.7276 82.7409 89.3083C82.5173 88.889 82.2028 88.5606 81.7975 88.323C81.3922 88.0854 80.917 87.9666 80.3719 87.9666C79.7289 87.9666 79.1769 88.1063 78.7156 88.3859C78.2684 88.6514 77.9189 89.0428 77.6674 89.5599C77.4298 90.0631 77.304 90.6851 77.29 91.4258C77.29 92.1806 77.4088 92.8235 77.6464 93.3546C77.884 93.8857 78.2334 94.2911 78.6947 94.5706C79.1559 94.8501 79.715 94.9899 80.3719 94.9899C81.0288 94.9899 81.6088 94.8501 82.112 94.5706C82.6151 94.2771 83.0414 93.8368 83.3908 93.2498L84.7536 94.1094C84.2504 94.92 83.6145 95.535 82.8457 95.9543C82.091 96.3596 81.1965 96.5623 80.1622 96.5623Z" fill="#333333"/>
<path d="M71.3472 80H73.0244V96.3528H71.3472V80Z" fill="#333333"/>
<path d="M69.5296 86.7438L63.2401 101H61.3532L63.9948 95.025L60.305 86.7438H62.2967L65.3576 94.2912L64.6657 94.2074L67.6428 86.7438H69.5296Z" fill="#333333"/>
<path d="M55.1062 86.7089L60.7348 86.7437L61.0555 88.2813H55.1062V86.7089ZM56.6786 83.3545H58.3558V96.3529H56.6786V83.3545Z" fill="#333333"/>
<path d="M45.4862 91.9081C45.8216 92.4952 46.171 93.0123 46.5344 93.4596C46.9118 93.9068 47.3311 94.2562 47.7923 94.5078C48.2536 94.7594 48.7777 94.8852 49.3647 94.8852C50.1474 94.8852 50.7764 94.6686 51.2516 94.2353C51.7268 93.802 51.9644 93.2499 51.9644 92.579C51.9644 91.9221 51.8106 91.398 51.5032 91.0067C51.1957 90.6153 50.7903 90.3008 50.2872 90.0632C49.798 89.8116 49.2739 89.588 48.7148 89.3923C48.3514 89.2665 47.9461 89.1058 47.4988 88.9101C47.0516 88.7005 46.6253 88.4419 46.22 88.1344C45.8146 87.813 45.4792 87.4216 45.2136 86.9604C44.962 86.4992 44.8363 85.9331 44.8363 85.2622C44.8363 84.5354 45.018 83.8855 45.3813 83.3125C45.7447 82.7394 46.2479 82.2922 46.8908 81.9707C47.5338 81.6353 48.2675 81.4675 49.0922 81.4675C49.8888 81.4675 50.5807 81.6213 51.1677 81.9288C51.7687 82.2223 52.2789 82.6066 52.6982 83.0818C53.1175 83.5431 53.4459 84.0323 53.6835 84.5494L52.1531 85.4299C51.9714 85.0665 51.7408 84.7101 51.4612 84.3607C51.1817 84.0113 50.8393 83.7248 50.4339 83.5011C50.0426 83.2775 49.5604 83.1657 48.9873 83.1657C48.1907 83.1657 47.6106 83.3614 47.2472 83.7527C46.8838 84.1301 46.7021 84.5564 46.7021 85.0316C46.7021 85.4369 46.807 85.8143 47.0166 86.1637C47.2263 86.4992 47.5757 86.8206 48.0649 87.1281C48.568 87.4216 49.2459 87.7151 50.0985 88.0086C50.4898 88.1484 50.9022 88.3301 51.3354 88.5537C51.7687 88.7774 52.1671 89.0639 52.5304 89.4133C52.9078 89.7487 53.2153 90.1611 53.4529 90.6502C53.6905 91.1255 53.8093 91.6985 53.8093 92.3694C53.8093 93.0123 53.6835 93.5923 53.4319 94.1095C53.1943 94.6266 52.8589 95.0669 52.4256 95.4303C52.0063 95.7937 51.5241 96.0732 50.979 96.2689C50.4479 96.4646 49.8888 96.5624 49.3018 96.5624C48.5051 96.5624 47.7644 96.3947 47.0795 96.0592C46.4086 95.7098 45.8146 95.2556 45.2975 94.6965C44.7943 94.1235 44.382 93.5155 44.0605 92.8725L45.4862 91.9081Z" fill="#333333"/>
<path d="M37.4545 80.7338H39.2366V96.1431L28.1251 84.4865V95.4093H26.343V80L37.4545 91.6566V80.7338Z" fill="#333333"/>
<path d="M16.9807 88.1763H18.9724L26.6597 95.4093H24.0391L16.9807 88.1763ZM14.3601 80.7336H16.1421V95.4092H14.3601V80.7336ZM15.3455 82.306V80.7336H18.3435C19.2939 80.7336 20.1395 80.9153 20.8803 81.2787C21.635 81.6282 22.229 82.1313 22.6623 82.7882C23.1095 83.4451 23.3332 84.2278 23.3332 85.1363C23.3332 86.0308 23.1095 86.8135 22.6623 87.4844C22.229 88.1413 21.635 88.6515 20.8803 89.0149C20.1395 89.3643 19.2939 89.539 18.3435 89.539H15.3455V87.9666H18.3435C18.9724 87.9666 19.5245 87.8548 19.9997 87.6312C20.4889 87.4075 20.8663 87.0861 21.1318 86.6668C21.4114 86.2475 21.5511 85.7373 21.5511 85.1363C21.5511 84.5353 21.4114 84.0252 21.1318 83.6059C20.8663 83.1866 20.4889 82.8651 19.9997 82.6415C19.5245 82.4178 18.9724 82.306 18.3435 82.306H15.3455Z" fill="#333333"/>
<path d="M11.1626 56.37C13.0102 59.1078 16.436 62.0488 18.4375 64.1347C20.5161 66.2206 22.8256 67.8503 25.366 69.0236C27.9065 70.1969 30.7934 70.7836 34.0267 70.7836C38.3377 70.7836 41.802 69.7732 44.4194 67.7525C47.0369 65.7317 48.3456 63.1569 48.3456 60.028C48.3456 56.9643 47.4988 54.5199 45.8051 52.6947C44.1115 50.8695 41.879 49.4028 39.1076 48.2947C36.4132 47.1214 33.5263 46.0784 30.4469 45.1658C28.4454 44.5791 26.2129 43.8295 23.7494 42.9169C21.2859 41.9391 18.9379 40.7332 16.7054 39.2991C14.4729 37.7999 12.6253 35.9747 11.1626 33.8236C9.7769 31.6725 9.08404 29.0325 9.08404 25.9036C9.08404 22.514 10.0848 19.4828 12.0864 16.8103C14.088 14.1377 16.8594 12.0517 20.4006 10.5525C23.9418 8.98803 27.9835 8.20581 32.5255 8.20581C36.9136 8.20581 40.7242 8.92285 43.9575 10.3569C47.2678 11.7258 50.0777 13.5184 52.3872 15.7347C54.6967 17.8858 58.8678 23.4917 60.1765 25.9036L49.3849 26.6858C48.3841 24.991 47.1139 23.3288 45.5742 21.6991C44.0345 20.0695 42.1484 18.7332 39.9159 17.6903C37.7604 16.6473 35.1044 16.1258 31.9481 16.1258C27.5601 16.1258 24.3653 17.0384 22.3637 18.8636C20.3621 20.6236 19.3613 22.6117 19.3613 24.828C19.3613 26.7184 19.9387 28.4784 21.0935 30.108C22.2482 31.6725 24.1728 33.1717 26.8672 34.6058C29.6386 35.9747 33.3723 37.3436 38.0683 38.7125C40.2238 39.3643 42.4949 40.2117 44.8813 41.2547C47.2678 42.2977 49.4619 43.634 51.4634 45.2636C53.542 46.828 55.2356 48.751 56.5443 51.0325C57.853 53.2488 58.5074 55.9214 58.5074 59.0503C58.5074 62.0488 57.8146 64.754 56.4289 67.1658C55.1201 69.5777 53.2725 71.631 50.886 73.3258C48.5765 75.0206 45.9206 76.3243 42.9183 77.2369C39.9929 78.1495 36.9136 78.6058 33.6803 78.6058C29.2922 78.6058 25.2121 77.8236 21.4399 76.2592C17.7447 74.6295 14.4729 72.511 11.6245 69.9036C8.85309 67.231 1.77062 59.3685 0 56.37H11.1626Z" fill="url(#paint0_linear_2113_1185)"/>
<path d="M54 41L64 39.3753L93.2414 78.7182H79.462L54 41ZM54.7693 8.31874V0H70.5329C75.5303 0 79.9764 0.961342 83.8714 2.88383C87.8399 4.73237 90.9632 7.39455 93.2414 10.8698C95.5931 14.3451 96.7689 18.4862 96.7689 23.2924C96.7689 28.0247 95.5931 32.1659 93.2414 35.7151C90.9632 39.1903 87.8399 41.8895 83.8714 43.812C79.9764 45.6605 75.5303 46.5849 70.5329 46.5849H54.7693L50 39.3753L70.5329 38.2662C73.84 38.2662 76.7429 37.6746 79.2415 36.4915C81.8137 35.3084 83.7979 33.6076 85.1942 31.3893C86.664 29.1711 87.3989 26.4719 87.3989 23.2924C87.3989 20.113 86.664 17.4138 85.1942 15.1955C83.7979 12.9773 81.8137 11.2765 79.2415 10.0934C76.7429 8.91033 73.84 8.31874 70.5329 8.31874H54.7693Z" fill="url(#paint1_linear_2113_1185)"/>
<defs>
<linearGradient id="paint0_linear_2113_1185" x1="48.5515" y1="138.446" x2="-22.6156" y2="124.62" gradientUnits="userSpaceOnUse">
<stop stop-color="#01A0D5"/>
<stop offset="1" stop-color="#156AD1"/>
</linearGradient>
<linearGradient id="paint1_linear_2113_1185" x1="87.734" y1="145.629" x2="31.3636" y2="138.017" gradientUnits="userSpaceOnUse">
<stop stop-color="#01A0D5"/>
<stop offset="1" stop-color="#156AD1"/>
</linearGradient>
</defs>
</svg>
