<svg width="97" height="79" viewBox="0 0 97 79" fill="none" xmlns="http://www.w3.org/2000/svg">
<path d="M11.1626 56.37C13.0102 59.1078 16.436 62.0488 18.4375 64.1347C20.5161 66.2206 22.8256 67.8503 25.366 69.0236C27.9065 70.1969 30.7934 70.7836 34.0267 70.7836C38.3377 70.7836 41.802 69.7732 44.4194 67.7525C47.0369 65.7317 48.3456 63.1569 48.3456 60.028C48.3456 56.9643 47.4988 54.5199 45.8051 52.6947C44.1115 50.8695 41.879 49.4028 39.1076 48.2947C36.4132 47.1214 33.5263 46.0784 30.4469 45.1658C28.4454 44.5791 26.2129 43.8295 23.7494 42.9169C21.2859 41.9391 18.9379 40.7332 16.7054 39.2991C14.4729 37.7999 12.6253 35.9747 11.1626 33.8236C9.7769 31.6725 9.08404 29.0325 9.08404 25.9036C9.08404 22.514 10.0848 19.4828 12.0864 16.8103C14.088 14.1377 16.8594 12.0517 20.4006 10.5525C23.9418 8.98803 27.9835 8.20581 32.5255 8.20581C36.9136 8.20581 40.7242 8.92285 43.9575 10.3569C47.2678 11.7258 50.0777 13.5184 52.3872 15.7347C54.6967 17.8858 58.8678 23.4917 60.1765 25.9036L49.3849 26.6858C48.3841 24.991 47.1139 23.3288 45.5742 21.6991C44.0345 20.0695 42.1484 18.7332 39.9159 17.6903C37.7604 16.6473 35.1044 16.1258 31.9481 16.1258C27.5601 16.1258 24.3653 17.0384 22.3637 18.8636C20.3621 20.6236 19.3613 22.6117 19.3613 24.828C19.3613 26.7184 19.9387 28.4784 21.0935 30.108C22.2482 31.6725 24.1728 33.1717 26.8672 34.6058C29.6386 35.9747 33.3723 37.3436 38.0683 38.7125C40.2238 39.3643 42.4949 40.2117 44.8813 41.2547C47.2678 42.2977 49.4619 43.634 51.4634 45.2636C53.542 46.828 55.2356 48.751 56.5443 51.0325C57.853 53.2488 58.5074 55.9214 58.5074 59.0503C58.5074 62.0488 57.8146 64.754 56.4289 67.1658C55.1201 69.5777 53.2725 71.631 50.886 73.3258C48.5765 75.0206 45.9206 76.3243 42.9183 77.2369C39.9929 78.1495 36.9136 78.6058 33.6803 78.6058C29.2922 78.6058 25.2121 77.8236 21.4399 76.2592C17.7447 74.6295 14.4729 72.511 11.6245 69.9036C8.85309 67.231 1.77062 59.3685 0 56.37H11.1626Z" fill="url(#paint0_linear_2115_1394)"/>
<path d="M54 41L64 39.3753L93.2414 78.7182H79.462L54 41ZM54.7693 8.31874V0H70.5329C75.5303 0 79.9764 0.961342 83.8714 2.88383C87.8399 4.73237 90.9632 7.39455 93.2414 10.8698C95.5931 14.3451 96.7689 18.4862 96.7689 23.2924C96.7689 28.0247 95.5931 32.1659 93.2414 35.7151C90.9632 39.1903 87.8399 41.8895 83.8714 43.812C79.9764 45.6605 75.5303 46.5849 70.5329 46.5849H54.7693L50 39.3753L70.5329 38.2662C73.84 38.2662 76.7429 37.6746 79.2415 36.4915C81.8137 35.3084 83.7979 33.6076 85.1942 31.3893C86.664 29.1711 87.3989 26.4719 87.3989 23.2924C87.3989 20.113 86.664 17.4138 85.1942 15.1955C83.7979 12.9773 81.8137 11.2765 79.2415 10.0934C76.7429 8.91033 73.84 8.31874 70.5329 8.31874H54.7693Z" fill="url(#paint1_linear_2115_1394)"/>
<defs>
<linearGradient id="paint0_linear_2115_1394" x1="48.5515" y1="138.446" x2="-22.6156" y2="124.62" gradientUnits="userSpaceOnUse">
<stop stop-color="#01A0D5"/>
<stop offset="1" stop-color="#156AD1"/>
</linearGradient>
<linearGradient id="paint1_linear_2115_1394" x1="87.734" y1="145.629" x2="31.3636" y2="138.017" gradientUnits="userSpaceOnUse">
<stop stop-color="#01A0D5"/>
<stop offset="1" stop-color="#156AD1"/>
</linearGradient>
</defs>
</svg>
